<svg width="16" height="16" fill="none" xmlns="http://www.w3.org/2000/svg"><g clip-path="url(#clip0_258_1925)"><path fill-rule="evenodd" clip-rule="evenodd" d="M15.73 11.527a.815.815 0 01-.798.726H.805A.819.819 0 010 11.42V4.747c0-.416.294-.76.679-.822h14.379a.82.82 0 01.672.715v6.887zM1.805 5.569v5.048H3.07V5.569H1.805zm3.965 0l-.293 2.358-.182-1.282a38.28 38.28 0 00-.151-1.076H3.503v5.048H4.61l.004-3.333.467 3.333h.79l.442-3.408.004 3.408h1.105V5.569H5.77zm3.728 1.05c.014.064.021.21.021.439v1.957c0 .335-.02.541-.063.617-.042.076-.154.114-.336.114V6.432c.138 0 .232.015.282.045a.21.21 0 01.096.142zm.572 3.947a.886.886 0 00.38-.181.687.687 0 00.215-.358c.041-.153.066-.455.066-.908V7.346c0-.477-.018-.797-.046-.96a.92.92 0 00-.211-.444.95.95 0 00-.493-.286c-.216-.058-.568-.087-1.181-.087h-.944v5.048h1.533c.303 0 .53-.018.68-.052zm2.703-.712c-.024.065-.126.097-.203.097-.076 0-.126-.031-.151-.093-.026-.062-.038-.204-.038-.425V8.098c0-.23.01-.373.033-.43.023-.057.072-.086.147-.086.077 0 .18.033.207.098.026.065.04.205.04.418v1.294c0 .244-.012.398-.035.462zm-1.611.763h1.14l.078-.322c.103.13.217.226.34.29.125.065.31.098.454.098.2 0 .373-.055.519-.164a.706.706 0 00.277-.385c.039-.148.059-.374.059-.676V8.04c0-.304-.007-.503-.02-.597a.699.699 0 00-.117-.286.631.631 0 00-.281-.226 1.076 1.076 0 00-.436-.082c-.146 0-.332.03-.457.09-.13.065-.245.157-.337.27V5.57h-1.22v5.048z" fill="#fff"/></g><defs><clipPath id="clip0_258_1925"><path fill="#fff" d="M0 0h16v16H0z"/></clipPath></defs></svg>