<svg width="16" height="16" fill="none" xmlns="http://www.w3.org/2000/svg"><g clip-path="url(#clip0_213_1542)"><g clip-path="url(#clip1_213_1542)"><path fill-rule="evenodd" clip-rule="evenodd" d="M7.826 15.652A7.826 7.826 0 117.826 0a7.826 7.826 0 010 15.652zm0-6.568a1.258 1.258 0 100-2.516 1.258 1.258 0 000 2.516zm3.005-2.376a1.887 1.887 0 100-3.773 1.887 1.887 0 000 3.773zm0 6.01a1.887 1.887 0 100-3.775 1.887 1.887 0 000 3.775zm-6.01-6.009a1.887 1.887 0 100-3.774 1.887 1.887 0 000 3.774zm0 6.01a1.887 1.887 0 100-3.775 1.887 1.887 0 000 3.774z" fill="#fff"/></g></g><defs><clipPath id="clip0_213_1542"><path fill="#fff" d="M0 0h16v16H0z"/></clipPath><clipPath id="clip1_213_1542"><path fill="#fff" d="M0 0h16v16H0z"/></clipPath></defs></svg>